<?xml version="1.0" standalone="no"?>
<!DOCTYPE svg PUBLIC "-//W3C//DTD SVG 20010904//EN"
 "http://www.w3.org/TR/2001/REC-SVG-20010904/DTD/svg10.dtd">
<svg version="1.0" xmlns="http://www.w3.org/2000/svg"
 width="30.000000pt" height="30.000000pt" viewBox="0 0 30.000000 30.000000"
 preserveAspectRatio="xMidYMid meet">

<g transform="translate(0.000000,30.000000) scale(0.100000,-0.100000)"
fill="#000000" stroke="none">
<path d="M103 246 c-4 -8 -24 -16 -43 -18 l-35 -3 0 -80 0 -80 125 0 125 0 0
80 0 80 -35 3 c-19 2 -39 10 -43 18 -5 8 -24 14 -47 14 -23 0 -42 -6 -47 -14z
m94 -48 c29 -27 29 -65 1 -95 -27 -29 -65 -29 -95 -1 -29 27 -29 65 -1 95 27
29 65 29 95 1z m53 2 c0 -5 -4 -10 -10 -10 -5 0 -10 5 -10 10 0 6 5 10 10 10
6 0 10 -4 10 -10z"/>
<path d="M116 184 c-20 -20 -20 -48 0 -68 20 -20 48 -20 68 0 31 30 9 84 -34
84 -10 0 -26 -7 -34 -16z"/>
<path d="M58 243 c7 -3 16 -2 19 1 4 3 -2 6 -13 5 -11 0 -14 -3 -6 -6z"/>
</g>
</svg>
