<?xml version="1.0" encoding="UTF-8"?>
<svg version="1.1" xmlns="http://www.w3.org/2000/svg" width="1920" height="292">
<path d="M0 0 C633.6 0 1267.2 0 1920 0 C1920 96.03 1920 192.06 1920 291 C1910.32175699 291.6452162 1900.84623162 292.15208008 1891.17675781 292.16113281 C1889.87926479 292.16601558 1888.58177177 292.17089834 1887.24496078 292.17592907 C1883.7174804 292.18870822 1880.19001697 292.19514206 1876.66251755 292.19982219 C1874.42978233 292.20315989 1872.197056 292.20808828 1869.96432495 292.21351814 C1859.55759838 292.238559 1849.15090541 292.24845736 1838.74415016 292.24968767 C1836.24762079 292.2500003 1833.75109167 292.25066399 1831.25456238 292.25133896 C1783.86163556 292.26049258 1736.54135733 292.11921908 1689.21899414 289.25323486 C1684.76837248 288.98417411 1680.31684757 288.73200601 1675.86523438 288.47998047 C1604.76963208 284.43020178 1533.78838562 278.36781779 1462.99023438 270.73291016 C1461.54369677 270.57692618 1461.54369677 270.57692618 1460.06793618 270.41779101 C1434.4629684 267.65022554 1408.88232835 264.67627211 1383.3046875 261.66796875 C1382.0421164 261.51966 1380.7795453 261.37135125 1379.47871447 261.2185483 C1338.8830021 256.44852868 1298.31773693 251.46462781 1257.7734375 246.2734375 C1256.51215216 246.11194662 1255.25086681 245.95045575 1253.9513607 245.78407121 C1236.04161214 243.48986265 1218.13362174 241.18205376 1200.22594452 238.87174225 C1178.43028668 236.06026989 1156.63384103 233.25494788 1134.8359375 230.4609375 C1133.59056127 230.30128155 1132.34518504 230.14162561 1131.06207013 229.97713161 C1094.40031877 225.27917364 1057.72338344 220.72820152 1021.01953125 216.37109375 C1020.00569854 216.25052597 1018.99186584 216.12995818 1017.94731092 216.00573683 C995.06055553 213.28426858 972.1645426 210.65995521 949.25244141 208.16040039 C948.26510659 208.05266261 947.27777177 207.94492483 946.26051772 207.83392227 C863.17357254 198.78457732 779.8603471 191.61602013 688 187.25 C686.72027313 187.19074341 685.44054626 187.13148682 684.12203979 187.07043457 C651.54070918 185.58579217 618.98901852 184.78827229 586.375 184.8125 C585.56033768 184.81276688 584.74567535 184.81303375 583.90632629 184.81330872 C501.72795781 184.84684294 419.75183504 190.28631276 83.125 236.25 C81.85318626 236.46683064 81.85318626 236.46683064 80.55567932 236.68804169 C74.80987174 237.66825793 69.06477816 238.65257538 63.3203125 239.640625 C62.13722504 239.84400167 62.13722504 239.84400167 60.93023682 240.05148697 C51.63294056 241.65205487 42.34352682 243.29144229 33.06152344 244.97851562 C31.71139443 245.2233777 31.71139443 245.2233777 30.3339901 245.47318649 C25.9931704 246.26089181 21.65332201 247.05335675 17.31497192 247.85455322 C15.75802248 248.13853442 14.20104753 248.42237581 12.64404297 248.70605469 C11.94110485 248.83772285 11.23816673 248.96939102 10.51392746 249.10504913 C6.88554523 249.76146474 3.72793584 250 0 250 C0 167.5 0 85 0 0 Z " fill="#FFFFFF" transform="translate(0,0)"/>
</svg>
